<?xml version="1.0" standalone="no"?>
<!DOCTYPE svg PUBLIC "-//W3C//DTD SVG 20010904//EN"
 "http://www.w3.org/TR/2001/REC-SVG-20010904/DTD/svg10.dtd">
<svg version="1.0" xmlns="http://www.w3.org/2000/svg"
 width="600.000000pt" height="384.000000pt" viewBox="0 0 600.000000 384.000000"
 preserveAspectRatio="xMidYMid meet">

<g transform="translate(0.000000,384.000000) scale(0.100000,-0.100000)"
fill="#000000" stroke="none">
<path d="M4461 2043 c-11 -10 -24 -32 -27 -50 -5 -27 -1 -37 25 -64 27 -26 37
-30 64 -25 93 18 87 156 -7 156 -19 0 -43 -8 -55 -17z"/>
<path d="M134 1981 c-34 -21 -58 -73 -52 -113 3 -22 6 -23 135 -26 l132 -3 3
-349 3 -350 27 -27 c22 -22 39 -27 88 -31 l60 -4 0 381 0 381 91 0 c137 0 189
34 189 125 l0 35 -322 0 c-301 0 -325 -1 -354 -19z"/>
<path d="M3100 1990 c-25 -4 -64 -13 -88 -19 l-43 -12 3 -420 3 -421 24 -19
c13 -10 38 -19 57 -19 l34 0 0 191 c0 178 1 191 18 184 72 -30 195 -37 268
-17 102 29 186 122 206 228 28 154 -57 284 -209 320 -62 15 -199 17 -273 4z
m280 -122 c117 -59 119 -251 5 -315 -49 -28 -164 -31 -243 -8 l-52 16 0 159 0
159 28 4 c15 2 70 5 122 6 81 1 103 -2 140 -21z"/>
<path d="M5606 1915 c-14 -13 -31 -36 -36 -50 -6 -15 -10 -155 -10 -334 l0
-307 28 -54 c37 -74 79 -95 190 -95 79 0 85 1 108 28 15 18 24 41 24 62 0 33
-1 34 -26 25 -43 -17 -126 -12 -161 10 -46 28 -53 67 -53 293 l0 197 103 0
c95 0 105 2 125 23 13 14 22 36 22 55 l0 32 -125 0 -125 0 0 70 c0 61 -2 70
-19 70 -10 0 -30 -11 -45 -25z"/>
<path d="M2358 1807 c-98 -28 -174 -103 -203 -200 -21 -71 -21 -426 0 -466 17
-34 70 -61 119 -61 l36 0 0 210 c0 249 8 297 56 340 19 16 45 31 57 32 77 5
128 -17 154 -65 15 -26 19 -67 23 -237 3 -113 9 -213 14 -222 13 -28 54 -49
106 -55 l50 -6 0 251 c0 229 -2 256 -20 306 -25 66 -79 124 -145 155 -61 29
-178 37 -247 18z"/>
<path d="M1830 1801 c-69 -21 -121 -65 -156 -131 -17 -31 -19 -64 -22 -273 -3
-208 -1 -242 13 -264 20 -30 72 -53 120 -53 l35 0 0 223 c0 240 7 286 47 323
21 20 37 24 84 24 32 0 69 -4 83 -10 26 -9 26 -9 26 39 0 57 -26 96 -76 117
-36 15 -113 17 -154 5z"/>
<path d="M3907 1800 c-59 -15 -111 -45 -150 -89 -46 -51 -64 -86 -82 -163 -46
-195 28 -382 178 -449 42 -19 69 -24 142 -24 79 0 97 4 141 27 64 34 117 94
146 167 18 46 22 77 23 176 0 112 -2 124 -29 183 -33 71 -86 124 -155 155 -52
23 -156 31 -214 17z m136 -111 c54 -15 112 -71 131 -126 18 -52 21 -189 6
-242 -24 -84 -93 -141 -172 -141 -132 0 -215 88 -226 240 -14 198 99 314 261
269z"/>
<path d="M5028 1797 c-84 -24 -152 -91 -182 -180 -21 -63 -24 -483 -3 -511 7
-9 31 -20 54 -23 l42 -5 3 248 c3 276 9 302 72 347 44 31 171 32 213 1 63 -47
68 -66 73 -322 5 -231 5 -234 29 -253 13 -11 39 -19 58 -19 l35 0 -5 253 c-2
151 -9 267 -16 289 -21 66 -72 130 -126 157 -60 30 -175 38 -247 18z"/>
<path d="M862 1548 c3 -242 4 -255 27 -306 30 -67 105 -135 172 -157 38 -13
74 -16 143 -13 152 7 227 60 267 189 16 51 19 92 19 265 l0 204 -28 31 c-24
27 -37 33 -85 37 l-55 4 -4 -238 c-2 -199 -6 -244 -19 -269 -26 -47 -54 -67
-101 -72 -61 -6 -107 20 -135 77 -21 41 -23 58 -23 215 0 93 -5 187 -11 208
-13 50 -57 77 -122 77 l-48 0 3 -252z"/>
<path d="M4450 1529 c0 -283 6 -335 37 -378 37 -49 70 -65 142 -69 79 -5 101
9 101 64 0 32 -2 34 -36 34 -43 0 -99 25 -111 48 -4 9 -10 131 -13 269 -5 238
-6 254 -26 273 -11 11 -37 23 -57 27 l-37 6 0 -274z"/>
</g>
</svg>
